<svg xmlns="http://www.w3.org/2000/svg" xmlns:xlink="http://www.w3.org/1999/xlink" version="1.1" x="0px" y="0px" viewBox="0 0 1000 1250" enable-background="new 0 0 1000 1000" xml:space="preserve" fill="white"><path fill="white" d="M844.506,377.195c-0.792-11.603-8.816-21.444-20.022-24.555L190.188,176.535c-10.354-2.874-21.434,0.563-28.342,8.796  s-8.37,19.74-3.741,29.438L441.68,808.855c4.586,9.607,14.262,15.609,24.736,15.609c0.968,0,1.944-0.051,2.922-0.155  c11.564-1.235,21.091-9.63,23.771-20.946l67.189-283.688l267.707-115.433C838.685,399.638,845.298,388.798,844.506,377.195z   M525.933,474.77c-7.96,3.432-13.828,10.426-15.825,18.86l-52.439,221.408l-224.129-469.55L734.87,384.678L525.933,474.77z"/><text x="0" y="1015" fill="#fff" font-size="5px" font-weight="bold" font-family="'Helvetica Neue', Helvetica, Arial-Unicode, Arial, Sans-serif">Created by rasendria</text><text x="0" y="1020" fill="#fff" font-size="5px" font-weight="bold" font-family="'Helvetica Neue', Helvetica, Arial-Unicode, Arial, Sans-serif">from the Noun Project</text></svg>